<svg width="528" height="513" viewBox="0 0 528 513" fill="none" xmlns="http://www.w3.org/2000/svg">
<path d="M32 96.5506C85 96.5506 128 139.551 128 192.551V278.351C157.7 233.651 205.8 202.151 261.4 194.351C287 254.351 346.6 296.451 416 296.451C426.9 296.451 437.6 295.351 448 293.351V480.551C448 498.251 433.7 512.551 416 512.551C398.3 512.551 384 498.251 384 480.551V339.751L248 448.551H304C321.7 448.551 336 462.851 336 480.551C336 498.251 321.7 512.551 304 512.551H160C107 512.551 64 469.551 64 416.551V192.551C64 175.951 51.4 162.351 35.3 160.751L28.7 160.451C12.6 158.751 0 145.151 0 128.551C0 110.851 14.3 96.5506 32 96.5506ZM501.8 3.75057C512.2 -4.94943 528 2.45057 528 16.0506V128.551C528 190.451 477.9 240.551 416 240.551C354.1 240.551 304 190.451 304 128.551V16.0506C304 2.45057 319.8 -4.94943 330.2 3.75057L384 48.5506H448L501.8 3.75057ZM368 108.551C357 108.551 348 117.551 348 128.551C348 139.551 357 148.551 368 148.551C379 148.551 388 139.551 388 128.551C388 117.551 379 108.551 368 108.551ZM464 108.551C453 108.551 444 117.551 444 128.551C444 139.551 453 148.551 464 148.551C475 148.551 484 139.551 484 128.551C484 117.551 475 108.551 464 108.551Z" fill="#7A1A73"/>
</svg>
